<?xml version="1.0" encoding="UTF-8" standalone="no"?>
<svg
   xmlns:dc="http://purl.org/dc/elements/1.1/"
   xmlns:cc="http://creativecommons.org/ns#"
   xmlns:rdf="http://www.w3.org/1999/02/22-rdf-syntax-ns#"
   xmlns:svg="http://www.w3.org/2000/svg"
   xmlns="http://www.w3.org/2000/svg"
   id="svg1911"
   version="1.1"
   viewBox="0 0 107.95001 139.7"
   height="5.5in"
   width="4.25in">
  <defs
     id="defs1905" />
  <metadata
     id="metadata1908">
    <rdf:RDF>
      <cc:Work
         rdf:about="">
        <dc:format>image/svg+xml</dc:format>
        <dc:type
           rdf:resource="http://purl.org/dc/dcmitype/StillImage" />
        <dc:title></dc:title>
      </cc:Work>
    </rdf:RDF>
  </metadata>
  <g
     id="layer1">
    <path
       id="path4395"
       d="m 19.578978,25.207416 c 0,-0.336692 -0.0223,-0.612141 -0.04953,-0.612141 -0.02709,0 -0.36768,0.206615 -0.756554,0.459091 -0.388845,0.252533 -0.73358,0.45912 -0.766064,0.45912 -0.03251,0 -0.05839,-0.218074 -0.05755,-0.484632 l 0.0028,-0.484576 0.791408,-0.511274 0.791436,-0.51133 0.02709,-0.63644 c 0.01496,-0.35004 0.0068,-0.636467 -0.0175,-0.636467 -0.02455,0 -0.668783,0.408375 -1.431657,0.907485 l -1.387038,0.90743 -0.02839,-0.409025 c -0.01552,-0.224931 -0.0082,-0.46815 0.01637,-0.540456 0.02455,-0.07231 0.576693,-0.468771 1.226792,-0.881041 0.650042,-0.412214 1.182991,-0.776055 1.184317,-0.808482 0.0028,-0.03251 -0.323229,-0.261987 -0.721162,-0.510117 -0.397934,-0.248102 -0.724183,-0.479185 -0.725001,-0.513447 -0.0028,-0.03435 0.173792,-0.166991 0.387971,-0.294922 l 0.38941,-0.232579 0.358225,0.253322 c 0.789742,0.558462 0.766036,0.558292 0.766036,0.0056 v -0.490756 l -1.601612,-1.03601 -1.601583,-1.035982 -0.346089,0.222448 c -0.190387,0.122315 -0.346456,0.246239 -0.346823,0.275393 0,0.02921 0.243982,0.204385 0.543024,0.389466 l 0.543758,0.33655 v 0.503146 c 0,0.276776 -0.01552,0.503203 -0.03488,0.503203 -0.01919,0 -0.355628,-0.205882 -0.747663,-0.457539 l -0.712724,-0.457567 -0.04532,1.589391 -0.04533,1.589363 -0.385149,0.255834 -0.385149,0.255778 v -1.846721 c 0,-1.015661 -0.03056,-1.843081 -0.06796,-1.838678 -0.03739,0.0045 -0.251488,0.133491 -0.47577,0.286879 l -0.407811,0.27892 -0.04533,1.100102 -0.04532,1.100131 -0.385121,0.255665 -0.385149,0.255665 v -1.078935 -1.078936 l -0.457115,0.303417 c -0.251404,0.166878 -0.487313,0.303417 -0.524228,0.303417 -0.07778,0 -0.378008,-0.54658 -0.378008,-0.68817 0,-0.05258 0.210312,-0.224424 0.467388,-0.38196 0.541561,-0.331765 0.553245,-0.309102 -0.489453,-0.951073 -0.336099,-0.206926 -0.611379,-0.402223 -0.611689,-0.433973 0,-0.03178 0.164282,-0.162024 0.36576,-0.289561 l 0.366409,-0.231789 0.828915,0.53055 0.828887,0.53055 0.480935,-0.292016 c 0.264499,-0.160612 0.480173,-0.314988 0.479241,-0.343041 -0.0028,-0.02822 -0.561904,-0.405158 -1.24666,-0.838031 -1.726497,-1.091352 -1.645076,-1.001549 -1.171705,-1.292633 l 0.393531,-0.242034 1.203114,0.778313 c 0.66167,0.428018 1.219736,0.778256 1.240112,0.778256 0.02032,0 0.03703,-0.436175 0.03703,-0.969208 0,-0.53309 0.02258,-0.969236 0.05001,-0.969236 0.02766,0 0.209494,0.103322 0.404397,0.229588 l 0.354358,0.229531 0.02596,0.737786 0.02596,0.737757 0.385148,-0.258967 0.385149,-0.258939 v -2.024296 -2.024267 l -0.385149,-0.256455 -0.385149,-0.256428 -0.02596,0.733778 -0.02625,0.733806 -0.401207,0.272768 -0.401236,0.272853 -0.02568,-1.00807 -0.02568,-1.00807 -1.203762,0.771596 -1.203791,0.771652 -0.363869,-0.184714 c -0.200121,-0.101601 -0.381929,-0.217622 -0.404027,-0.257895 -0.02201,-0.04024 0.593768,-0.478706 1.36858,-0.974344 1.549542,-0.991249 1.513897,-0.925548 0.74518,-1.373773 l -0.336663,-0.196286 -0.767503,0.510314 c -0.422148,0.280727 -0.808652,0.510371 -0.858944,0.510371 -0.100189,0 -0.736063,-0.404142 -0.736063,-0.467812 0,-0.02201 0.327772,-0.253971 0.728415,-0.516071 0.400643,-0.262044 0.746083,-0.508593 0.767645,-0.547878 0.02145,-0.03926 -0.16352,-0.19558 -0.411255,-0.3474159 -0.247763,-0.151779 -0.450455,-0.320661 -0.450455,-0.375214 0,-0.0788 0.150002,-0.392572 0.329692,-0.689667 0.01214,-0.02004 0.248751,0.109587 0.525837,0.288064 l 0.503823,0.324471 v -1.071513 -1.071524 l 0.407811,0.256596 0.407783,0.256579 8.5e-5,1.088024 8.5e-5,1.087995 0.443738,0.2805849 c 0.244037,0.154319 0.468291,0.280529 0.498319,0.280529 0.03003,0 0.05461,-0.8231579 0.05461,-1.8291949 V 6.857793 l 0.407811,0.2565401 0.407812,0.256625 v 1.57261 c 0,0.864927 0.01863,1.5725989 0.04132,1.5725989 0.02286,0 0.24717,-0.136624 0.498743,-0.303643 0.251601,-0.166963 0.579656,-0.3747629 0.72898,-0.4617159 l 0.271554,-0.158072 v 0.5118659 0.511839 l -0.498432,0.316681 c -0.274123,0.174188 -0.520249,0.356419 -0.546919,0.405017 -0.02653,0.04863 0.120763,0.185618 0.327688,0.304462 l 0.376203,0.216041 1.55273,-1.00474 1.552759,-1.0047389 0.02737,-0.533598 0.02738,-0.533597 -0.557558,0.367876 -0.557559,0.367877 -0.357801,-0.181638 c -0.196765,-0.09988 -0.377444,-0.217452 -0.401546,-0.261366 -0.02399,-0.0438 0.28925,-0.295938 0.696242,-0.560211 0.862669,-0.560155 0.927975,-0.417097 -0.656392,-1.438555 L 16.682365,6.384309 16.679565,5.899734 c 0,-0.266531 0.02625,-0.484632 0.05969,-0.484632 0.03342,0 0.66088,0.390256 1.394461,0.867212 0.733523,0.476956 1.360649,0.8671281 1.393585,0.8671281 0.03291,0 0.04772,-0.2819401 0.03288,-0.6265621 L 19.533091,5.89629 18.74016,5.389137 17.9472,4.881956 V 4.38341 c 0,-0.274235 0.01722,-0.498602 0.03816,-0.498602 0.02088,0 0.388027,0.227471 0.815622,0.50546 l 0.777438,0.50546 V 4.237219 3.578738 h 0.407811 0.407811 v 0.658481 0.658509 l 0.777438,-0.50546 c 0.427595,-0.277989 0.794625,-0.50546 0.815623,-0.50546 0.02088,0 0.03816,0.224367 0.03816,0.498602 v 0.498546 l -0.79296,0.507181 -0.79296,0.507153 -0.02681,0.62659 c -0.01496,0.344622 0.0028,0.6265621 0.03717,0.6265621 0.03528,0 0.662799,-0.3901721 1.39446,-0.8671281 0.731661,-0.476956 1.357235,-0.867212 1.390142,-0.867212 0.03294,0 0.0598,0.218101 0.05978,0.484632 L 23.294,6.384309 22.21292,7.0820191 c -1.575845,1.017027 -1.507886,0.882915 -0.701718,1.383888 0.380125,0.236248 0.714615,0.472271 0.743317,0.52451 0.02867,0.05224 -0.12906,0.194112 -0.35052,0.315242 l -0.402675,0.220218 -0.530888,-0.36624 -0.530888,-0.366268 -0.02822,0.46753 c -0.01552,0.257161 0.0048,0.503315 0.04533,0.547003 0.04039,0.04372 0.753816,0.5218569 1.585384,1.0625389 l 1.511949,0.983036 0.36847,-0.211638 c 0.202692,-0.116389 0.368018,-0.245138 0.367425,-0.286089 -0.0028,-0.04095 -0.245279,-0.225439 -0.54373,-0.409984 L 23.203461,10.610204 V 10.10147 9.5927361 l 0.271555,0.158072 c 0.149352,0.08695 0.477379,0.2947529 0.72898,0.4617159 0.251601,0.167019 0.476024,0.303643 0.498743,0.303643 0.02286,0 0.04134,-0.7076719 0.04134,-1.5725989 v -1.57261 l 0.407783,-0.256625 0.40784,-0.2565401 v 1.8291791 c 0,1.006037 0.02455,1.8291949 0.05458,1.8291949 0.03008,0 0.254283,-0.12621 0.498348,-0.280529 l 0.443745,-0.2805849 v -1.087995 -1.088024 l 0.407782,-0.256579 0.40784,-0.256596 v 1.071524 1.071513 l 0.503766,-0.324471 c 0.277114,-0.178477 0.514915,-0.308102 0.52849,-0.288064 0.178421,0.263624 0.327067,0.565856 0.327067,0.664916 0,0.06819 -0.20272,0.248186 -0.450455,0.399965 -0.247763,0.1518359 -0.431151,0.3112349 -0.4075,0.3542169 0.02371,0.04301 0.389099,0.296983 0.812207,0.564332 l 0.76931,0.486128 -0.37101,0.237236 c -0.204075,0.130499 -0.404453,0.237264 -0.445262,0.237264 -0.04084,0 -0.426551,-0.22908 -0.857165,-0.509016 l -0.782941,-0.509044 -0.334349,0.194987 c -0.752658,0.438912 -0.786158,0.377867 0.752489,1.371346 0.771144,0.497953 1.384413,0.937571 1.362767,0.976997 -0.02173,0.03937 -0.203059,0.154742 -0.403183,0.256343 l -0.363841,0.184714 -1.20379,-0.771652 -1.203791,-0.771652 -0.02596,0.961729 c -0.01439,0.528941 -0.0495,0.961728 -0.07829,0.961728 -0.02879,0 -0.21082,-0.100273 -0.40451,-0.222814 l -0.352183,-0.222843 v -0.749385 -0.749441 l -0.36178,0.232608 -0.361809,0.232607 -0.0028,2.098125 -0.0028,2.098154 0.362487,0.229333 0.362486,0.229362 v -0.752799 -0.7528 l 0.339852,-0.194761 c 0.186888,-0.107132 0.370388,-0.211244 0.407783,-0.231451 0.03739,-0.02004 0.06799,0.403324 0.06799,0.941042 0,0.537774 0.01665,0.977731 0.03703,0.977731 0.02032,0 0.579261,-0.350746 1.241919,-0.779442 l 1.204891,-0.779469 0.398244,0.237828 c 0.479975,0.286653 0.558518,0.200181 -1.179999,1.299182 -0.684756,0.432873 -1.245758,0.809978 -1.246661,0.838031 -0.0028,0.02822 0.217199,0.183896 0.484689,0.346343 l 0.486353,0.295346 0.822565,-0.534473 0.822565,-0.534416 0.367284,0.23241 c 0.202015,0.12779 0.366155,0.258346 0.364744,0.290096 -0.0028,0.03178 -0.348008,0.278921 -0.770269,0.549289 -0.422289,0.270313 -0.767785,0.50848 -0.767785,0.529224 0,0.02088 0.203905,0.162644 0.453136,0.315355 0.249202,0.15271 0.453107,0.318488 0.453107,0.368497 0,0.137668 -0.268308,0.692856 -0.334856,0.692856 -0.03206,0 -0.275703,-0.138148 -0.541387,-0.306917 L 27.36779,20.002362 v 1.082464 1.082435 l -0.385177,-0.255665 -0.38512,-0.255665 -0.04533,-1.100131 -0.0453,-1.100102 -0.407811,-0.27892 c -0.22431,-0.153388 -0.438376,-0.282448 -0.47577,-0.286879 -0.0374,-0.0045 -0.06799,0.820928 -0.06799,1.834134 v 1.842149 l -0.38512,-0.258318 -0.385149,-0.258318 -0.04533,-1.579852 -0.04533,-1.579852 -0.634351,0.415911 c -0.903083,0.592102 -0.860919,0.592018 -0.860919,0.0037 v -0.514124 l 0.543758,-0.336494 c 0.299043,-0.185081 0.543729,-0.363389 0.543729,-0.396212 0,-0.03288 -0.152936,-0.155137 -0.339852,-0.27178 l -0.339852,-0.212118 -1.607481,1.034966 -1.607454,1.034993 -0.0028,0.489628 -0.0028,0.48957 0.587277,-0.369711 0.587248,-0.369711 0.364292,0.230491 c 0.20035,0.126718 0.363616,0.256455 0.362825,0.288205 -0.0028,0.03178 -0.327039,0.260717 -0.725,0.508847 -0.397962,0.24813 -0.722687,0.477661 -0.721643,0.51006 0.0028,0.03254 0.5507,0.403324 1.221515,0.824202 l 1.219708,0.765133 0.0028,0.529703 0.0028,0.529759 -1.413764,-0.912311 c -0.777571,-0.501821 -1.432016,-0.912314 -1.454312,-0.912314 -0.0223,0 -0.02839,0.285384 -0.01355,0.63421 l 0.02709,0.634351 0.79296,0.508932 0.79296,0.508931 v 0.489091 c 0,0.269043 -0.03059,0.488611 -0.06799,0.487962 -0.03737,0 -0.373803,-0.206699 -0.747635,-0.457933 -0.373831,-0.251235 -0.710268,-0.457313 -0.747635,-0.457934 -0.03739,0 -0.06796,0.274292 -0.06796,0.610954 v 0.612112 h -0.407836 -0.407783 v -0.612112 z m 2.063468,-7.402069 1.565035,-1.009029 -0.02455,-2.089969 -0.02455,-2.089969 -1.540594,-0.996272 c -0.847351,-0.547963 -1.581384,-0.995088 -1.631224,-0.99362 -0.04984,0.0037 -0.783901,0.4537 -1.631216,1.004937 l -1.540595,1.002284 -0.02371,2.078454 -0.02371,2.078539 1.60607,1.038464 c 0.883356,0.57119 1.628112,1.026556 1.655036,1.011908 0.02681,-0.01468 0.753223,-0.480709 1.614002,-1.035727 z m -2.947953,-0.636778 -1.201674,-0.785989 0.02342,-1.667877 0.02371,-1.667877 1.223434,-0.800552 1.223405,-0.800523 0.271864,0.178392 c 0.14955,0.0981 0.720486,0.465695 1.268731,0.816836 l 0.996865,0.638443 -0.01806,1.647783 -0.01806,1.647755 -1.205428,0.791831 c -0.662996,0.435525 -1.246237,0.790956 -1.296077,0.789799 -0.04984,0 -0.63136,-0.355741 -1.292296,-0.788021 z m 2.193432,-0.795641 0.866027,-0.570795 v -1.090676 -1.090676 l -0.878586,-0.567069 -0.878587,-0.567013 -0.820589,0.533767 -0.820618,0.533795 -0.02455,1.159144 -0.02455,1.159086 0.840175,0.534163 c 0.462111,0.293821 0.848078,0.534811 0.85773,0.535629 0.0096,0 0.407275,-0.255439 0.883582,-0.569355 z"
       style="fill:#000000;stroke-width:0.282223" />
    <path
       id="path4395-6"
       d="m 90.953385,33.760042 c 0,-0.336692 -0.0223,-0.612141 -0.04953,-0.612141 -0.02709,0 -0.367679,0.206615 -0.756553,0.459091 -0.388846,0.252533 -0.73358,0.45912 -0.766064,0.45912 -0.03251,0 -0.05839,-0.218074 -0.05754,-0.484632 l 0.0028,-0.484576 0.791407,-0.511274 0.791436,-0.51133 0.02709,-0.63644 c 0.01496,-0.35004 0.0068,-0.636467 -0.0175,-0.636467 -0.02455,0 -0.668782,0.408375 -1.431657,0.907485 l -1.387038,0.90743 -0.02839,-0.409025 c -0.01552,-0.224931 -0.0082,-0.46815 0.01637,-0.540456 0.02455,-0.07231 0.576693,-0.468771 1.226792,-0.881041 0.650043,-0.412214 1.182991,-0.776055 1.184318,-0.808482 0.0028,-0.03251 -0.323229,-0.261987 -0.721163,-0.510117 -0.397933,-0.248102 -0.724182,-0.479185 -0.725001,-0.513447 -0.0028,-0.03435 0.173793,-0.166991 0.387971,-0.294922 l 0.389411,-0.232579 0.358224,0.253322 c 0.789743,0.558462 0.766036,0.558292 0.766036,0.0056 v -0.490756 l -1.601611,-1.03601 -1.601583,-1.035982 -0.346089,0.222448 c -0.190387,0.122315 -0.346456,0.246239 -0.346823,0.275393 0,0.02921 0.243981,0.204385 0.543024,0.389466 l 0.543757,0.33655 v 0.503146 c 0,0.276776 -0.01552,0.503203 -0.03488,0.503203 -0.01919,0 -0.355628,-0.205882 -0.747663,-0.457539 l -0.712724,-0.457567 -0.04533,1.589391 -0.04532,1.589363 -0.385149,0.255834 -0.385149,0.255778 v -1.846721 c 0,-1.015661 -0.03057,-1.843081 -0.06796,-1.838678 -0.03739,0.0045 -0.251488,0.133491 -0.47577,0.286879 l -0.407811,0.27892 -0.04532,1.100102 -0.04533,1.100131 -0.385121,0.255665 -0.385148,0.255665 v -1.078935 -1.078936 l -0.457116,0.303417 c -0.251403,0.166878 -0.487313,0.303417 -0.524227,0.303417 -0.07778,0 -0.378009,-0.54658 -0.378009,-0.68817 0,-0.05258 0.210312,-0.224424 0.467388,-0.38196 0.541561,-0.331765 0.553245,-0.309102 -0.489453,-0.951073 -0.336099,-0.206926 -0.611378,-0.402223 -0.611689,-0.433973 0,-0.03178 0.164282,-0.162024 0.36576,-0.289561 l 0.36641,-0.231789 0.828915,0.53055 0.828886,0.53055 0.480935,-0.292016 c 0.264499,-0.160612 0.480173,-0.314988 0.479242,-0.343041 -0.0028,-0.02822 -0.561905,-0.405158 -1.24666,-0.838031 -1.726498,-1.091352 -1.645077,-1.001549 -1.171705,-1.292633 l 0.39353,-0.242034 1.203114,0.778313 c 0.66167,0.428018 1.219736,0.778256 1.240113,0.778256 0.02032,0 0.03703,-0.436175 0.03703,-0.969208 0,-0.53309 0.02258,-0.969236 0.05001,-0.969236 0.02766,0 0.209493,0.103322 0.404396,0.229588 l 0.354358,0.229531 0.02596,0.737786 0.02596,0.737757 0.385148,-0.258967 0.385149,-0.258939 V 23.256209 21.231942 L 87.0351,20.975487 86.649952,20.71906 l -0.02596,0.733778 -0.02625,0.733805 -0.401207,0.272768 -0.401235,0.272853 -0.02568,-1.00807 -0.02568,-1.008069 -1.203763,0.771595 -1.203791,0.771652 -0.363869,-0.184714 c -0.200121,-0.1016 -0.381928,-0.217622 -0.404026,-0.257895 -0.02201,-0.04024 0.593767,-0.478705 1.36858,-0.974344 1.549541,-0.991249 1.513896,-0.925548 0.745179,-1.373773 l -0.336662,-0.196286 -0.767504,0.510315 c -0.422148,0.280726 -0.808651,0.51037 -0.858943,0.51037 -0.100189,0 -0.736064,-0.404142 -0.736064,-0.467811 0,-0.02201 0.327773,-0.253972 0.728416,-0.516072 0.400642,-0.262043 0.746082,-0.508593 0.767644,-0.547878 0.02145,-0.03926 -0.163519,-0.19558 -0.411254,-0.347415 -0.247763,-0.15178 -0.450455,-0.320661 -0.450455,-0.375215 0,-0.0788 0.150001,-0.392571 0.329692,-0.689666 0.01214,-0.02004 0.248751,0.109587 0.525836,0.288064 l 0.503824,0.324471 V 16.89001 15.818485 l 0.407811,0.256597 0.407783,0.256579 8.4e-5,1.088023 8.5e-5,1.087995 0.443738,0.280586 c 0.244037,0.154319 0.468291,0.280528 0.49832,0.280528 0.03003,0 0.05461,-0.823157 0.05461,-1.829195 V 15.41042 l 0.407811,0.25654 0.407811,0.256625 v 1.57261 c 0,0.864926 0.01863,1.572598 0.04132,1.572598 0.02286,0 0.24717,-0.136623 0.498743,-0.303642 0.251602,-0.166963 0.579657,-0.374763 0.728981,-0.461716 l 0.271554,-0.158073 v 0.511867 0.511838 l -0.498433,0.316682 c -0.274122,0.174187 -0.520248,0.356418 -0.546918,0.405017 -0.02653,0.04863 0.120763,0.185617 0.327688,0.304461 l 0.376202,0.216041 1.552731,-1.004739 1.552758,-1.00474 0.02738,-0.533597 0.02737,-0.533598 -0.557558,0.367877 -0.557558,0.367877 -0.357802,-0.181639 c -0.196765,-0.09988 -0.377444,-0.217452 -0.401545,-0.261366 -0.02399,-0.0438 0.289249,-0.295938 0.696242,-0.560211 0.862669,-0.560154 0.927975,-0.417096 -0.656393,-1.438554 l -1.072811,-0.691642 -0.0028,-0.484576 c 0,-0.266531 0.02625,-0.484632 0.05969,-0.484632 0.03342,0 0.66088,0.390257 1.39446,0.867212 0.733524,0.476956 1.36065,0.867128 1.393585,0.867128 0.03291,0 0.04772,-0.28194 0.03288,-0.626561 l -0.02709,-0.62659 -0.792932,-0.507153 -0.79296,-0.507182 v -0.498546 c 0,-0.274235 0.01722,-0.498602 0.03816,-0.498602 0.02088,0 0.388028,0.227472 0.815623,0.50546 l 0.777437,0.50546 v -0.658509 -0.658481 h 0.407812 0.407811 v 0.658481 0.658509 l 0.777437,-0.50546 c 0.427595,-0.277988 0.794625,-0.50546 0.815623,-0.50546 0.02088,0 0.03816,0.224367 0.03816,0.498602 v 0.498546 l -0.79296,0.507182 -0.79296,0.507153 -0.02681,0.62659 c -0.01496,0.344621 0.0028,0.626561 0.03717,0.626561 0.03528,0 0.662799,-0.390172 1.39446,-0.867128 0.731661,-0.476955 1.357235,-0.867212 1.390142,-0.867212 0.03294,0 0.0598,0.218101 0.05978,0.484632 l -8.5e-5,0.484576 -1.08108,0.697709 c -1.575845,1.017028 -1.507886,0.882916 -0.701718,1.383889 0.380125,0.236248 0.714615,0.47227 0.743317,0.52451 0.02867,0.05224 -0.12906,0.194112 -0.35052,0.315242 l -0.402675,0.220218 -0.530888,-0.36624 -0.530888,-0.366268 -0.02822,0.467529 c -0.01552,0.257161 0.0048,0.503316 0.04532,0.547004 0.04039,0.04372 0.753816,0.521857 1.585384,1.062538 l 1.511949,0.983037 0.36847,-0.211639 c 0.202692,-0.116388 0.368018,-0.245138 0.367425,-0.286089 -0.0028,-0.04095 -0.245279,-0.225439 -0.54373,-0.409984 L 94.577868,19.16283 v -0.508734 -0.508734 l 0.271555,0.158073 c 0.149352,0.08695 0.477379,0.294753 0.72898,0.461716 0.251601,0.167019 0.476024,0.303642 0.498743,0.303642 0.02286,0 0.04134,-0.707672 0.04134,-1.572598 v -1.57261 l 0.407783,-0.256625 0.40784,-0.25654 v 1.829178 c 0,1.006038 0.02455,1.829195 0.05458,1.829195 0.03008,0 0.254283,-0.126209 0.498348,-0.280528 l 0.443745,-0.280586 v -1.087995 -1.088023 l 0.407782,-0.256579 0.40784,-0.256597 v 1.071525 1.071513 l 0.503766,-0.324471 c 0.277114,-0.178477 0.514915,-0.308102 0.52849,-0.288064 0.178421,0.263623 0.32707,0.565855 0.32707,0.664915 0,0.06818 -0.202723,0.248186 -0.450458,0.399966 -0.247763,0.151835 -0.431151,0.311234 -0.4075,0.354217 0.02371,0.04301 0.389099,0.296982 0.812208,0.564331 l 0.76931,0.486128 -0.37101,0.237236 c -0.20408,0.1305 -0.40445,0.237264 -0.44526,0.237264 -0.04084,0 -0.426554,-0.229079 -0.857168,-0.509016 l -0.782941,-0.509044 -0.334349,0.194987 c -0.752658,0.438912 -0.786158,0.377868 0.752489,1.371346 0.771144,0.497953 1.384409,0.937571 1.362769,0.976997 -0.0217,0.03937 -0.203061,0.154743 -0.403185,0.256343 l -0.363841,0.184714 -1.20379,-0.771652 -1.203791,-0.771652 -0.02596,0.961729 c -0.01439,0.528941 -0.0495,0.961728 -0.07829,0.961728 -0.02879,0 -0.21082,-0.100273 -0.40451,-0.222814 L 96.11827,22.193868 v -0.749384 -0.749441 l -0.36178,0.232607 -0.361809,0.232608 -0.0028,2.098124 -0.0028,2.098154 0.362487,0.229333 0.362486,0.229362 v -0.752799 -0.7528 l 0.339832,-0.194761 c 0.186888,-0.107132 0.370388,-0.211244 0.407783,-0.231451 0.03739,-0.02004 0.06799,0.403324 0.06799,0.941042 0,0.537774 0.01665,0.977731 0.03703,0.977731 0.02032,0 0.579261,-0.350746 1.241919,-0.779442 l 1.204891,-0.779469 0.398244,0.237828 c 0.479977,0.286653 0.558517,0.200181 -1.179999,1.299182 -0.684756,0.432873 -1.245758,0.809978 -1.246661,0.838031 -0.0028,0.02822 0.217199,0.183896 0.484689,0.346343 l 0.486353,0.295346 0.822565,-0.534473 0.82257,-0.534416 0.36728,0.23241 c 0.20201,0.12779 0.36615,0.258346 0.36474,0.290096 -0.003,0.03178 -0.348,0.278921 -0.770266,0.549289 -0.422289,0.270313 -0.767785,0.50848 -0.767785,0.529224 0,0.02088 0.203905,0.162644 0.453136,0.315355 0.249202,0.15271 0.453105,0.318488 0.453105,0.368497 0,0.137668 -0.268306,0.692856 -0.334854,0.692856 -0.03206,0 -0.275703,-0.138148 -0.541387,-0.306917 l -0.483052,-0.306945 v 1.082464 1.082435 L 98.357,30.464222 l -0.38512,-0.255665 -0.04533,-1.100131 -0.0453,-1.100102 -0.407811,-0.27892 c -0.22431,-0.153388 -0.438376,-0.282448 -0.47577,-0.286879 -0.0374,-0.0045 -0.06799,0.820928 -0.06799,1.834134 v 1.842149 L 96.544559,30.86049 96.15941,30.602172 96.11408,29.02232 96.06875,27.442468 95.434399,27.858379 c -0.903083,0.592102 -0.860919,0.592018 -0.860919,0.0037 v -0.514124 l 0.543758,-0.336494 c 0.299043,-0.185081 0.543729,-0.363389 0.543729,-0.396212 0,-0.03288 -0.152936,-0.155137 -0.339852,-0.27178 l -0.339852,-0.212118 -1.607481,1.034966 -1.607453,1.034993 -0.0028,0.489628 -0.0028,0.48957 0.587276,-0.369711 0.587248,-0.369711 0.364292,0.230491 c 0.20035,0.126718 0.363616,0.256455 0.362825,0.288205 -0.0028,0.03178 -0.327039,0.260717 -0.725,0.508847 -0.397962,0.24813 -0.722687,0.477661 -0.721643,0.51006 0.0028,0.03254 0.5507,0.403324 1.221515,0.824202 l 1.219708,0.765133 0.0028,0.529703 0.0028,0.529759 -1.413764,-0.912311 c -0.777571,-0.501821 -1.432016,-0.912314 -1.454312,-0.912314 -0.0223,0 -0.02839,0.285384 -0.01355,0.63421 l 0.02709,0.634351 0.79296,0.508932 0.79296,0.508931 v 0.489091 c 0,0.269043 -0.03059,0.488611 -0.06799,0.487962 -0.03737,0 -0.373803,-0.206699 -0.747635,-0.457933 -0.373831,-0.251235 -0.710268,-0.457313 -0.747634,-0.457934 -0.03739,0 -0.06796,0.274292 -0.06796,0.610954 v 0.612112 h -0.407837 -0.407783 v -0.612112 z m 2.063468,-7.402069 1.565035,-1.009029 -0.02455,-2.089969 -0.02455,-2.089968 -1.540594,-0.996273 c -0.847351,-0.547963 -1.581383,-0.995087 -1.631224,-0.99362 -0.04984,0.0037 -0.7839,0.453701 -1.631216,1.004937 l -1.540595,1.002284 -0.02371,2.078454 -0.02371,2.078539 1.606071,1.038464 c 0.883355,0.57119 1.628111,1.026556 1.655035,1.011908 0.02681,-0.01468 0.753223,-0.480709 1.614002,-1.035727 z m -2.947953,-0.636778 -1.201674,-0.785989 0.02342,-1.667877 0.02371,-1.667877 1.223434,-0.800552 1.223405,-0.800523 0.271865,0.178393 c 0.14955,0.0981 0.720485,0.465695 1.26873,0.816836 l 0.996865,0.638443 -0.01806,1.647782 -0.01806,1.647755 -1.205428,0.791831 c -0.662996,0.435525 -1.246237,0.790956 -1.296077,0.789799 -0.04984,0 -0.631359,-0.355741 -1.292296,-0.788021 z m 2.193432,-0.795641 0.866027,-0.570795 v -1.090676 -1.090676 l -0.878586,-0.567069 -0.878586,-0.567012 -0.82059,0.533766 -0.820617,0.533796 -0.02455,1.159143 -0.02455,1.159086 0.840176,0.534163 c 0.46211,0.293821 0.848077,0.534811 0.857729,0.535629 0.0096,0 0.407275,-0.255439 0.883582,-0.569355 z"
       style="fill:#000000;stroke-width:0.282223" />
    <path
       id="path4395-5"
       d="m 32.206173,70.591252 c 0,-0.336692 -0.0223,-0.612141 -0.04953,-0.612141 -0.02709,0 -0.367679,0.206615 -0.756553,0.459091 -0.388846,0.252533 -0.73358,0.45912 -0.766064,0.45912 -0.03251,0 -0.05839,-0.218074 -0.05755,-0.484632 l 0.0028,-0.484576 0.791407,-0.511274 0.791436,-0.51133 0.02709,-0.63644 c 0.01496,-0.35004 0.0068,-0.636467 -0.0175,-0.636467 -0.02455,0 -0.668782,0.408375 -1.431657,0.907485 l -1.387037,0.90743 -0.02839,-0.409025 c -0.01552,-0.224931 -0.0082,-0.46815 0.01637,-0.540456 0.02455,-0.07231 0.576692,-0.468771 1.226791,-0.881041 0.650043,-0.412214 1.182991,-0.776055 1.184318,-0.808482 0.0028,-0.03251 -0.323229,-0.261987 -0.721163,-0.510117 -0.397933,-0.248102 -0.724182,-0.479185 -0.725,-0.513447 -0.0028,-0.03435 0.173792,-0.166991 0.387971,-0.294922 l 0.38941,-0.232579 0.358224,0.253322 c 0.789743,0.558462 0.766036,0.558292 0.766036,0.0056 v -0.490756 l -1.601611,-1.03601 -1.601583,-1.035982 -0.346089,0.222448 c -0.190387,0.122315 -0.346456,0.246239 -0.346823,0.275393 0,0.02921 0.243981,0.204385 0.543024,0.389466 l 0.543757,0.33655 v 0.503146 c 0,0.276776 -0.01552,0.503203 -0.03488,0.503203 -0.01919,0 -0.355628,-0.205882 -0.747663,-0.457539 l -0.712724,-0.457567 -0.04533,1.589391 -0.04533,1.589363 -0.385149,0.255834 -0.385148,0.255778 v -1.846721 c 0,-1.015661 -0.03056,-1.843081 -0.06796,-1.838678 -0.03739,0.0045 -0.251489,0.133491 -0.475771,0.286879 l -0.407811,0.27892 -0.04533,1.100102 -0.04533,1.100131 -0.38512,0.255665 -0.385149,0.255665 v -1.078935 -1.078936 l -0.457115,0.303417 c -0.251404,0.166878 -0.487314,0.303417 -0.524228,0.303417 -0.07778,0 -0.378009,-0.54658 -0.378009,-0.68817 0,-0.05258 0.210312,-0.224424 0.467389,-0.38196 0.54156,-0.331765 0.553244,-0.309102 -0.489454,-0.951073 -0.336098,-0.206926 -0.611378,-0.402223 -0.611688,-0.433973 0,-0.03178 0.164281,-0.162024 0.36576,-0.289561 l 0.366409,-0.231789 0.828915,0.53055 0.828887,0.53055 0.480935,-0.292016 c 0.264498,-0.160612 0.480172,-0.314988 0.479241,-0.343041 -0.0028,-0.02822 -0.561904,-0.405158 -1.24666,-0.838031 -1.726498,-1.091352 -1.645076,-1.001549 -1.171705,-1.292633 l 0.393531,-0.242034 1.203113,0.778313 c 0.66167,0.428018 1.219736,0.778256 1.240113,0.778256 0.02032,0 0.03703,-0.436175 0.03703,-0.969208 0,-0.53309 0.02258,-0.969236 0.05001,-0.969236 0.02766,0 0.209493,0.103322 0.404396,0.229588 l 0.354358,0.229531 0.02596,0.737786 0.02596,0.737757 0.385148,-0.258967 0.385149,-0.258939 v -2.024296 -2.024267 l -0.385149,-0.256455 -0.385148,-0.256428 -0.02596,0.733778 -0.02625,0.733806 -0.401208,0.272768 -0.401235,0.272853 -0.02568,-1.00807 -0.02568,-1.00807 -1.203763,0.771596 -1.203791,0.771652 -0.363869,-0.184714 c -0.200121,-0.1016 -0.381928,-0.217622 -0.404026,-0.257895 -0.02201,-0.04024 0.593767,-0.478706 1.36858,-0.974344 1.549541,-0.991249 1.513897,-0.925548 0.74518,-1.373773 l -0.336663,-0.196286 -0.767504,0.510314 c -0.422148,0.280727 -0.808651,0.510371 -0.858943,0.510371 -0.100189,0 -0.736064,-0.404142 -0.736064,-0.467812 0,-0.02201 0.327773,-0.253971 0.728416,-0.516071 0.400642,-0.262044 0.746082,-0.508593 0.767644,-0.547878 0.02145,-0.03926 -0.163519,-0.19558 -0.411254,-0.347416 -0.247763,-0.151779 -0.450455,-0.320661 -0.450455,-0.375214 0,-0.0788 0.150001,-0.392571 0.329692,-0.689667 0.01214,-0.02004 0.248751,0.109587 0.525837,0.288065 l 0.503823,0.32447 v -1.071513 -1.071524 l 0.407811,0.256596 0.407783,0.25658 8.5e-5,1.088023 8.4e-5,1.087995 0.443738,0.280585 c 0.244038,0.154319 0.468292,0.280529 0.49832,0.280529 0.03003,0 0.05461,-0.823157 0.05461,-1.829195 V 52.24163 l 0.407811,0.25654 0.407811,0.256624 v 1.57261 c 0,0.864927 0.01863,1.572599 0.04132,1.572599 0.02286,0 0.247171,-0.136624 0.498743,-0.303643 0.251602,-0.166962 0.579657,-0.374763 0.728981,-0.461715 l 0.271554,-0.158073 v 0.511866 0.511839 l -0.498433,0.316681 c -0.274122,0.174188 -0.520248,0.356419 -0.546918,0.405017 -0.02653,0.04863 0.120763,0.185618 0.327688,0.304462 l 0.376202,0.216041 1.552731,-1.004739 1.552758,-1.00474 0.02738,-0.533597 0.02738,-0.533598 -0.557558,0.367877 -0.557558,0.367876 -0.357802,-0.181638 c -0.196765,-0.09988 -0.377444,-0.217452 -0.401545,-0.261366 -0.02399,-0.0438 0.289249,-0.295938 0.696242,-0.560211 0.862669,-0.560155 0.927975,-0.417096 -0.656393,-1.438555 l -1.072811,-0.691642 -0.0028,-0.484575 c 0,-0.266531 0.02625,-0.484632 0.05969,-0.484632 0.03342,0 0.66088,0.390257 1.39446,0.867212 0.733524,0.476956 1.36065,0.867128 1.393585,0.867128 0.03291,0 0.04772,-0.28194 0.03288,-0.626562 l -0.02709,-0.626589 -0.792932,-0.507154 -0.79296,-0.507181 v -0.498546 c 0,-0.274235 0.01722,-0.498602 0.03816,-0.498602 0.02088,0 0.388028,0.227471 0.815623,0.50546 l 0.777438,0.50546 v -0.658509 -0.658481 h 0.407811 0.407811 v 0.658481 0.658509 l 0.777437,-0.50546 c 0.427595,-0.277989 0.794625,-0.50546 0.815623,-0.50546 0.02088,0 0.03816,0.224367 0.03816,0.498602 v 0.498546 l -0.79296,0.507181 -0.792959,0.507154 -0.02681,0.626589 c -0.01496,0.344622 0.0028,0.626562 0.03717,0.626562 0.03528,0 0.662798,-0.390172 1.394459,-0.867128 0.731661,-0.476955 1.357235,-0.867212 1.390142,-0.867212 0.03294,0 0.0598,0.218101 0.05978,0.484632 l -8.5e-5,0.484575 -1.08108,0.69771 c -1.575845,1.017028 -1.507886,0.882916 -0.701718,1.383888 0.380125,0.236249 0.714615,0.472271 0.743317,0.52451 0.02867,0.05224 -0.12906,0.194113 -0.35052,0.315243 l -0.402675,0.220218 -0.530888,-0.36624 -0.530887,-0.366268 -0.02822,0.467529 c -0.01552,0.257161 0.0048,0.503315 0.04533,0.547003 0.04039,0.04372 0.753815,0.521857 1.585383,1.062539 l 1.511949,0.983036 0.36847,-0.211638 c 0.202692,-0.116389 0.368018,-0.245138 0.367425,-0.286089 -0.0028,-0.04095 -0.245279,-0.225439 -0.54373,-0.409984 L 35.830645,55.99404 v -0.508734 -0.508734 l 0.271555,0.158073 c 0.149352,0.08695 0.477379,0.294753 0.72898,0.461715 0.251601,0.167019 0.476024,0.303643 0.498743,0.303643 0.02286,0 0.04134,-0.707672 0.04134,-1.572599 v -1.57261 l 0.407783,-0.256624 0.40784,-0.25654 v 1.829178 c 0,1.006038 0.02455,1.829195 0.05458,1.829195 0.03008,0 0.254283,-0.12621 0.498348,-0.280529 l 0.443745,-0.280585 v -1.087995 -1.088023 l 0.407782,-0.25658 0.40784,-0.256596 v 1.071524 1.071513 l 0.503766,-0.32447 c 0.277114,-0.178478 0.514915,-0.308102 0.52849,-0.288065 0.178421,0.263624 0.327067,0.565856 0.327067,0.664916 0,0.06818 -0.20272,0.248186 -0.450455,0.399965 -0.247763,0.151836 -0.431151,0.311235 -0.4075,0.354217 0.02371,0.04301 0.389099,0.296983 0.812207,0.564332 l 0.76931,0.486128 -0.37101,0.237236 c -0.204075,0.130499 -0.404453,0.237264 -0.445262,0.237264 -0.04084,0 -0.426551,-0.22908 -0.857165,-0.509016 l -0.782941,-0.509044 -0.334349,0.194987 c -0.752658,0.438912 -0.786158,0.377867 0.752489,1.371346 0.771144,0.497953 1.384413,0.937571 1.362767,0.976997 -0.02173,0.03937 -0.203059,0.154743 -0.403183,0.256343 l -0.363841,0.184714 -1.20379,-0.771652 -1.203791,-0.771652 -0.02596,0.961729 c -0.01439,0.528941 -0.0495,0.961728 -0.07829,0.961728 -0.02879,0 -0.21082,-0.100273 -0.40451,-0.222814 l -0.352192,-0.222843 v -0.749384 -0.749442 l -0.36178,0.232608 -0.361809,0.232607 -0.0028,2.098125 -0.0028,2.098154 0.362487,0.229333 0.362486,0.229362 v -0.752799 -0.7528 l 0.339852,-0.194761 c 0.186888,-0.107132 0.370388,-0.211244 0.407783,-0.231451 0.03739,-0.02004 0.06799,0.403324 0.06799,0.941042 0,0.537774 0.01665,0.977731 0.03703,0.977731 0.02032,0 0.579261,-0.350746 1.241919,-0.779442 l 1.204891,-0.779469 0.398244,0.237828 c 0.479975,0.286653 0.558518,0.200181 -1.179999,1.299182 -0.684756,0.432873 -1.245758,0.809978 -1.246661,0.838031 -0.0028,0.02822 0.217199,0.183896 0.484689,0.346343 l 0.486353,0.295346 0.822565,-0.534473 0.822565,-0.534416 0.367284,0.23241 c 0.202015,0.12779 0.366155,0.258346 0.364744,0.290096 -0.0028,0.03178 -0.348008,0.278921 -0.770269,0.549289 -0.422289,0.270313 -0.767785,0.50848 -0.767785,0.529224 0,0.02088 0.203905,0.162644 0.453136,0.315355 0.249202,0.15271 0.453107,0.318488 0.453107,0.368497 0,0.137668 -0.268308,0.692856 -0.334856,0.692856 -0.03206,0 -0.275703,-0.138148 -0.541387,-0.306917 l -0.483052,-0.306945 v 1.082464 1.082435 l -0.385177,-0.255665 -0.38512,-0.255665 -0.04533,-1.100131 -0.0453,-1.100102 -0.407811,-0.27892 c -0.22431,-0.153388 -0.438376,-0.282448 -0.47577,-0.286879 -0.0374,-0.0045 -0.06799,0.820928 -0.06799,1.834134 v 1.842149 l -0.38512,-0.258318 -0.385149,-0.258318 -0.04533,-1.579852 -0.04533,-1.579852 -0.634351,0.415911 c -0.903083,0.592102 -0.860919,0.592018 -0.860919,0.0037 v -0.514124 l 0.543758,-0.336494 c 0.299043,-0.185081 0.543729,-0.363389 0.543729,-0.396212 0,-0.03288 -0.152936,-0.155137 -0.339852,-0.27178 l -0.339852,-0.212118 -1.607481,1.034966 -1.607453,1.034993 -0.0028,0.489628 -0.0028,0.48957 0.587276,-0.369711 0.587248,-0.369711 0.364292,0.230491 c 0.20035,0.126718 0.363616,0.256455 0.362825,0.288205 -0.0028,0.03178 -0.327039,0.260717 -0.725,0.508847 -0.397962,0.24813 -0.722687,0.477661 -0.721643,0.51006 0.0028,0.03254 0.5507,0.403324 1.221515,0.824202 l 1.219708,0.765133 0.0028,0.529703 0.0028,0.529759 -1.413764,-0.912311 c -0.777571,-0.501821 -1.432016,-0.912314 -1.454312,-0.912314 -0.0223,0 -0.02839,0.285384 -0.01355,0.63421 l 0.02709,0.634351 0.79296,0.508932 0.79296,0.508931 v 0.489091 c 0,0.269043 -0.03059,0.488611 -0.06799,0.487962 -0.03737,0 -0.373803,-0.206699 -0.747635,-0.457933 -0.373831,-0.251235 -0.710268,-0.457313 -0.747634,-0.457934 -0.03739,0 -0.06796,0.274292 -0.06796,0.610954 v 0.612112 h -0.40787 -0.407783 v -0.612112 z m 2.063468,-7.402069 1.565035,-1.009029 -0.02455,-2.089969 -0.02455,-2.089969 -1.540594,-0.996272 c -0.847351,-0.547963 -1.581383,-0.995088 -1.631224,-0.99362 -0.04984,0.0037 -0.7839,0.4537 -1.631216,1.004937 l -1.540595,1.002284 -0.02371,2.078454 -0.02371,2.078539 1.606071,1.038464 c 0.883355,0.57119 1.628111,1.026556 1.655035,1.011908 0.02681,-0.01468 0.753223,-0.480709 1.614002,-1.035727 z m -2.947953,-0.636778 -1.201674,-0.785989 0.02342,-1.667877 0.02371,-1.667877 1.223433,-0.800552 1.223405,-0.800523 0.271865,0.178392 c 0.14955,0.0981 0.720485,0.465695 1.26873,0.816836 l 0.996865,0.638443 -0.01806,1.647783 -0.01806,1.647755 -1.205428,0.791831 c -0.662996,0.435525 -1.246236,0.790956 -1.296077,0.789799 -0.04984,0 -0.631359,-0.355741 -1.292296,-0.788021 z m 2.193432,-0.795641 0.866027,-0.570795 v -1.090676 -1.090676 l -0.878586,-0.567069 -0.878586,-0.567013 -0.82059,0.533767 -0.820617,0.533795 -0.02455,1.159144 -0.02455,1.159086 0.840176,0.534163 c 0.46211,0.293821 0.848078,0.534811 0.85773,0.535629 0.0096,0 0.407275,-0.255439 0.883581,-0.569355 z"
       style="fill:#000000;stroke-width:0.282223" />
    <text
       id="text1978"
       y="42.495853"
       x="27.713039"
       style="font-style:normal;font-weight:normal;font-size:10.5833px;line-height:1.85;font-family:sans-serif;fill:none;fill-opacity:1;stroke:#000000;stroke-width:0.264583;stroke-opacity:1;"
       xml:space="preserve"><tspan
         style="font-style:normal;font-variant:normal;font-weight:normal;font-stretch:normal;font-size:25.4px;line-height:1.85;font-family:Impact;-inkscape-font-specification:Impact;stroke-width:0.264583;fill:none;stroke:#000000;stroke-opacity:1;"
         y="42.495853"
         x="27.713039"
         id="tspan1976">2020</tspan></text>
    <path
       id="path4408-6-8-3"
       d="m 45.412803,68.77763 c -1.310763,-1.580444 0.197857,-4.839185 2.221825,-4.799322 0.746316,0.01467 0.858344,-0.106533 1.824974,-1.974775 0.73318,-1.416986 2.356526,-3.379907 3.749235,-4.533488 1.264506,-1.047327 3.862976,-2.075204 5.572658,-2.204287 0.873386,-0.06595 1.362598,-0.215677 1.365439,-0.417869 0.0025,-0.173349 0.178728,-0.312682 0.391757,-0.309639 0.245281,0.0035 0.398658,-0.149115 0.418239,-0.416165 0.02055,-0.279581 0.203171,-0.440906 0.54201,-0.478595 0.281096,-0.03125 0.565254,-0.192313 0.631515,-0.357913 0.06625,-0.165574 0.308325,-0.22587 0.537965,-0.133986 0.229613,0.09187 0.532076,0.04331 0.672093,-0.107889 0.16383,-0.176899 0.389861,-0.175068 0.633714,0.0051 0.208534,0.154052 0.537808,0.229168 0.732066,0.166218 0.195765,-0.06314 0.486334,0.02081 0.652291,0.188433 0.164652,0.166254 0.46989,0.347175 0.678309,0.401994 0.20847,0.05484 0.376592,0.266588 0.373709,0.470558 -0.0029,0.203896 0.216032,0.459326 0.486522,0.567554 0.35481,0.141967 0.445996,0.31132 0.327346,0.607855 -0.09137,0.228356 -0.02745,0.465862 0.143808,0.534386 0.190178,0.0761 0.231093,0.316314 0.106803,0.626945 -0.110818,0.276962 -0.07929,0.654744 0.07007,0.83947 0.229021,0.283201 0.208301,0.370237 -0.132045,0.555025 -0.335285,0.182101 -0.379612,0.293798 -0.263563,0.658707 0.120095,0.372272 0.07179,0.458272 -0.31281,0.556775 -0.250054,0.06412 -0.533939,0.314457 -0.630719,0.556332 -0.101581,0.253877 -0.306272,0.387647 -0.48424,0.316438 -0.171286,-0.06854 -0.381359,0.05931 -0.472729,0.287667 -0.106069,0.265091 -0.301479,0.356218 -0.550325,0.256649 -0.212268,-0.08493 -0.560789,-0.05945 -0.774419,0.05655 -0.213725,0.116081 -0.57186,0.106866 -0.795919,-0.02039 -0.390539,-0.221857 -0.441098,-0.146399 -1.223258,1.826415 -0.448369,1.131887 -0.853378,2.471928 -0.89922,2.978126 -0.1216,1.343796 0.634547,3.519504 1.491903,4.292524 0.392206,0.353602 0.792877,0.943133 0.890432,1.309973 0.23037,0.866401 -0.249708,2.416 -0.989293,3.192835 -1.137265,1.194722 -1.182665,1.184581 -9.305873,-2.076359 -5.878823,-2.360106 -7.341128,-3.011478 -7.682103,-3.422617 z m 17.116461,2.308519 -0.302573,-0.70631 -7.211946,-2.885655 -7.211919,-2.885644 -0.70633,0.302626 c -0.555905,0.238154 -0.791301,0.51506 -1.105492,1.300298 -0.413613,1.033718 -0.370852,1.571082 0.178024,2.23654 0.214015,0.259476 2.638651,1.319023 7.270727,3.17725 l 6.949621,2.788018 c 1.487241,-0.533429 2.635928,-2.043066 2.139888,-3.327123 z M 59.53396,65.123791 c -1.034913,-2.816926 -1.316776,-3.856617 -1.105745,-4.078403 0.231126,-0.242838 0.416643,0.05223 1.007012,1.601228 0.639629,1.678412 1.119225,2.531911 0.982277,1.748061 -0.02627,-0.1504 0.291011,-1.176824 0.705071,-2.280946 l 0.752789,-2.007516 -0.551095,-0.15615 c -0.336955,-0.09542 -0.54915,-0.296242 -0.546041,-0.5165 0.0028,-0.198178 -0.182731,-0.435514 -0.412343,-0.527387 -0.244995,-0.09803 -0.363372,-0.302365 -0.28647,-0.494561 0.07208,-0.180143 -0.0412,-0.454817 -0.251812,-0.610431 -0.258778,-0.191206 -0.303286,-0.390612 -0.137357,-0.615155 0.13502,-0.182772 0.146995,-0.533815 0.02659,-0.780123 -0.19636,-0.401755 -0.32957,-0.437972 -1.291956,-0.35182 -3.134268,0.280653 -6.581275,3.011391 -8.592842,6.80737 l -0.701857,1.324497 5.896366,2.359263 5.896446,2.359294 z m 4.461695,-5.306647 c 0.734065,-0.05111 1.928072,-0.946484 2.305754,-1.728965 0.405473,-0.840152 0.176473,-2.411045 -0.446897,-3.065364 -1.040989,-1.092625 -1.959918,-1.325373 -3.274199,-0.82925 -1.007152,0.38021 -1.110462,0.485176 -1.557204,1.582393 -0.677525,1.66444 -0.439033,2.463356 1.066624,3.570159 0.524845,0.385851 1.097465,0.527332 1.905922,0.471027 z"
       style="fill:#000000;stroke:#000000;stroke-width:0.175319;stroke-miterlimit:4;stroke-dasharray:none;stroke-opacity:1" />
    <path
       transform="scale(0.26458335)"
       d="M 192.67969 268.44336 C 189.98916 272.44491 186.86678 277.17208 183.21484 282.7832 C 156.70248 323.51877 155.78118 325.10237 157.31445 327.26953 C 158.05239 328.31257 160.71077 329.1462 163.96484 329.35547 L 169.38672 329.70508 L 145.36133 371.93359 C 130.43735 398.16526 121.43904 415.05246 121.60742 416.50977 C 121.85662 418.66667 122.8287 418.90214 133.67969 419.44141 L 145.48242 420.0293 L 126.38281 452.65625 C 113.26417 475.0662 107.46026 485.93543 107.84766 487.36719 C 108.35658 489.24818 110.53454 489.52802 130.14453 490.22266 C 142.09768 490.64615 158.35888 490.99496 166.28125 490.99609 L 180.68555 490.99805 L 180.09961 509.53125 C 179.77506 519.76697 179.91217 528.82554 180.40625 529.76562 C 181.10975 531.10426 184.99411 531.60538 198.58984 532.10938 L 198.58984 532.10742 C 208.09862 532.45994 217.52937 532.85713 219.54688 532.98828 C 226.5811 533.44625 226.37695 534.10279 226.37695 510.82812 L 226.37695 489.85352 L 263.12695 489.54492 C 299.12036 489.24354 299.88289 489.18885 300.16602 486.87109 C 300.34575 485.39961 293.82189 472.6382 282.91602 453.12695 C 273.26952 435.86888 265.37695 421.49345 265.37695 421.18164 C 265.37695 420.87017 270.50534 420.61523 276.77148 420.61523 C 286.3439 420.61523 288.26366 420.31096 288.78516 418.7168 C 289.19876 417.45247 281.2712 402.28681 265.02734 373.26172 L 240.65039 329.70508 L 244.26367 329.39258 C 250.91874 328.8167 252.38121 328.06938 252.3125 325.2832 C 252.25958 323.13662 238.59592 301.18694 225.92969 281.87305 L 215.41016 277.62305 C 218.15724 281.84392 221.13069 286.44368 224.40625 291.58008 L 243.48047 321.49219 L 237.6875 322.08008 C 233.55842 322.49812 231.81191 323.18221 231.60547 324.46094 C 231.44618 325.44762 242.28991 345.7706 255.70312 369.62305 L 280.0918 412.99023 L 268.79297 413.32031 C 258.56738 413.61886 257.43234 413.87023 256.86719 415.95898 C 256.40623 417.66268 260.84408 426.56511 273.81055 449.95312 C 283.47242 467.38053 291.37695 481.8973 291.37695 482.21289 C 291.37695 482.52856 275.88004 482.78711 256.9375 482.78711 C 230.48285 482.78711 222.30892 483.12565 221.6875 484.25195 C 221.24254 485.05843 220.65195 494.69223 220.37695 505.66016 L 219.87695 525.60156 L 202.87695 525.2832 L 185.87695 524.9668 L 186.19336 505.04102 C 186.44181 489.3723 186.22824 484.99919 185.19336 484.5625 C 184.46961 484.257 168.75003 483.60052 150.26172 483.10352 L 116.64844 482.19922 L 135.51172 449.98633 C 145.88753 432.26847 154.37695 417.19596 154.37695 416.49414 C 154.37695 413.23214 151.70201 412.4043 141.17773 412.4043 C 135.23773 412.4043 130.37695 412.13426 130.37695 411.80469 C 130.37695 411.47545 141.20341 392.1679 154.43555 368.89844 C 167.66769 345.62905 178.35231 325.70812 178.17773 324.62891 C 177.93512 323.12917 176.41325 322.52835 171.7207 322.08008 L 165.58008 321.49219 L 184.85156 291.75977 C 190.11931 283.63174 194.96849 276.23369 198.56445 270.82031 L 192.67969 268.44336 z "
       style="fill:#000000;stroke-width:1.08307"
       id="path2587" />
  </g>
</svg>
