<?xml version="1.0" encoding="UTF-8" standalone="no"?>
<svg
   xmlns:osb="http://www.openswatchbook.org/uri/2009/osb"
   xmlns:dc="http://purl.org/dc/elements/1.1/"
   xmlns:cc="http://creativecommons.org/ns#"
   xmlns:rdf="http://www.w3.org/1999/02/22-rdf-syntax-ns#"
   xmlns:svg="http://www.w3.org/2000/svg"
   xmlns="http://www.w3.org/2000/svg"
   xmlns:sodipodi="http://sodipodi.sourceforge.net/DTD/sodipodi-0.dtd"
   xmlns:inkscape="http://www.inkscape.org/namespaces/inkscape"
   inkscape:version="1.0 (4035a4fb49, 2020-05-01)"
   sodipodi:docname="2020 card revise.svg"
   id="svg1911"
   version="1.1"
   viewBox="0 0 114.30001 158.75"
   height="6.25in"
   width="4.5in">
  <defs
     id="defs1905">
    <linearGradient
       osb:paint="solid"
       id="linearGradient2643">
      <stop
         id="stop2641"
         offset="0"
         style="stop-color:#000000;stop-opacity:1;" />
    </linearGradient>
  </defs>
  <sodipodi:namedview
     inkscape:window-maximized="1"
     inkscape:window-y="-8"
     inkscape:window-x="-8"
     inkscape:window-height="1017"
     inkscape:window-width="1920"
     units="in"
     showgrid="false"
     inkscape:document-rotation="0"
     inkscape:current-layer="text2649"
     inkscape:document-units="in"
     inkscape:cy="390.45586"
     inkscape:cx="257.79595"
     inkscape:zoom="3.959798"
     inkscape:pageshadow="2"
     inkscape:pageopacity="0.0"
     borderopacity="1.0"
     bordercolor="#666666"
     pagecolor="#ffffff"
     id="base" />
  <metadata
     id="metadata1908">
    <rdf:RDF>
      <cc:Work
         rdf:about="">
        <dc:format>image/svg+xml</dc:format>
        <dc:type
           rdf:resource="http://purl.org/dc/dcmitype/StillImage" />
        <dc:title></dc:title>
      </cc:Work>
    </rdf:RDF>
  </metadata>
  <g
     id="layer1"
     inkscape:groupmode="layer"
     inkscape:label="Layer 1">
    <path
       sodipodi:nodetypes="cssssccccssccccccssssccccssssccccccsccccccccscsccscscsccsssccssscccsssssccs"
       inkscape:connector-curvature="0"
       id="path4408-6-8-3"
       d="m 49.795326,58.911279 c -1.465033,-1.766454 0.221143,-5.408732 2.483322,-5.364178 0.834154,0.0164 0.959367,-0.119071 2.039764,-2.207195 0.819472,-1.583758 2.633877,-3.777705 4.190501,-5.067056 1.413331,-1.170592 4.317628,-2.319445 6.228531,-2.463721 0.976179,-0.07371 1.522968,-0.241061 1.526144,-0.46705 0.0028,-0.193751 0.199763,-0.349483 0.437864,-0.346081 0.27415,0.0039 0.445578,-0.166665 0.467464,-0.465146 0.02297,-0.312486 0.227083,-0.492798 0.605802,-0.534923 0.314179,-0.03493 0.631781,-0.214947 0.705841,-0.400038 0.07405,-0.185061 0.344613,-0.252453 0.60128,-0.149755 0.256638,0.102683 0.594699,0.04841 0.751195,-0.120587 0.183112,-0.197719 0.435746,-0.195673 0.708299,0.0057 0.233078,0.172183 0.601105,0.25614 0.818227,0.185781 0.218805,-0.07057 0.543573,0.02326 0.729062,0.210611 0.184031,0.185821 0.525193,0.388036 0.758142,0.449306 0.233006,0.0613 0.420915,0.297964 0.417693,0.525941 -0.0032,0.227893 0.241458,0.513386 0.543783,0.634352 0.396569,0.158676 0.498487,0.347961 0.365873,0.679396 -0.102124,0.255233 -0.03068,0.520692 0.160733,0.597281 0.212561,0.08506 0.258292,0.353542 0.119374,0.700733 -0.123861,0.309559 -0.08862,0.731804 0.07832,0.938271 0.255976,0.316532 0.232817,0.413812 -0.147586,0.620349 -0.374746,0.203533 -0.42429,0.328376 -0.294583,0.736233 0.13423,0.416087 0.08024,0.512208 -0.349626,0.622305 -0.279484,0.07167 -0.596781,0.351467 -0.704951,0.621809 -0.113537,0.283757 -0.342319,0.433271 -0.541233,0.353681 -0.191445,-0.07661 -0.426243,0.06629 -0.528366,0.321524 -0.118553,0.296291 -0.336962,0.398143 -0.615096,0.286855 -0.237251,-0.09492 -0.626791,-0.06645 -0.865564,0.06321 -0.238879,0.129743 -0.639165,0.119444 -0.889594,-0.02279 -0.436504,-0.247968 -0.493013,-0.163629 -1.36723,2.041375 -0.501139,1.265104 -0.953816,2.762861 -1.005053,3.328636 -0.135912,1.501954 0.70923,3.933731 1.667492,4.797732 0.438367,0.395219 0.886195,1.054134 0.995231,1.46415 0.257484,0.968372 -0.279097,2.70035 -1.105727,3.568615 -1.271115,1.335334 -1.321859,1.324 -10.401126,-2.320736 -6.57073,-2.637878 -8.205141,-3.365913 -8.586247,-3.825441 z m 19.13098,2.58022 -0.338185,-0.789439 -8.060754,-3.225282 -8.060725,-3.225269 -0.789461,0.338243 c -0.621332,0.266184 -0.884433,0.57568 -1.235603,1.453336 -0.462293,1.155382 -0.414499,1.755991 0.198977,2.49977 0.239203,0.290015 2.949206,1.474265 8.126453,3.551195 l 7.767556,3.116154 c 1.662281,-0.596211 2.946163,-2.283525 2.391742,-3.718708 z M 65.57847,54.827402 c -1.156717,-3.148464 -1.471754,-4.310521 -1.235886,-4.55841 0.258329,-0.271419 0.46568,0.05838 1.125532,1.789684 0.71491,1.875953 1.250952,2.829904 1.097886,1.953799 -0.02936,-0.168101 0.325262,-1.31533 0.788055,-2.549402 l 0.841388,-2.24379 -0.615956,-0.174528 c -0.376613,-0.10665 -0.613782,-0.331108 -0.610307,-0.577289 0.0031,-0.221503 -0.204238,-0.486772 -0.460874,-0.589458 -0.27383,-0.109568 -0.406139,-0.337952 -0.320186,-0.552768 0.08056,-0.201345 -0.04605,-0.508347 -0.281449,-0.682276 -0.289235,-0.21371 -0.338981,-0.436585 -0.153523,-0.687555 0.150911,-0.204284 0.164295,-0.596643 0.02972,-0.87194 -0.21947,-0.449039 -0.368358,-0.489519 -1.444012,-0.393227 -3.503155,0.313684 -7.355857,3.365816 -9.604175,7.608562 l -0.784462,1.480383 6.590338,2.636937 6.590427,2.63697 z m 4.986813,-5.931212 c 0.820461,-0.05712 2.154996,-1.05788 2.577129,-1.932455 0.453196,-0.939034 0.197243,-2.694813 -0.499494,-3.426142 -1.163508,-1.221221 -2.19059,-1.481362 -3.659555,-0.926848 -1.125689,0.424959 -1.241158,0.542279 -1.740479,1.768632 -0.757266,1.860336 -0.490705,2.753281 1.19216,3.990349 0.586617,0.431263 1.226631,0.589396 2.130239,0.526464 z"
       style="fill:none;stroke:#000000;stroke-width:0.195953;stroke-miterlimit:4;stroke-dasharray:none;stroke-opacity:1" />
    <path
       d="m 54.48687,61.423872 c -0.795654,1.183352 -1.719014,2.581288 -2.798979,4.240627 -7.840326,12.046463 -8.112776,12.51477 -7.659352,13.155651 0.218227,0.308451 1.004372,0.554975 1.966677,0.616861 l 1.603377,0.103387 -7.104871,12.48796 c -4.413371,7.757312 -7.074382,12.751262 -7.024588,13.182222 0.07369,0.63784 0.361161,0.70748 3.570052,0.86696 l 3.490345,0.17385 -5.648203,9.64855 c -3.879489,6.62714 -5.595841,9.84143 -5.481278,10.26484 0.1505,0.55625 0.794573,0.63901 6.593707,0.84443 3.534826,0.12524 8.343645,0.22838 10.686475,0.22871 l 4.259689,5.8e-4 -0.173276,5.48071 c -0.09598,3.02694 -0.05543,5.70578 0.09068,5.98378 0.208041,0.39586 1.356737,0.54406 5.377313,0.6931 v -5.8e-4 c 2.811969,0.10428 5.600863,0.22171 6.197488,0.26049 2.080183,0.13543 2.019812,0.32959 2.019812,-6.55328 v -6.20268 l 10.867837,-0.0912 c 10.644095,-0.0891 10.869593,-0.10529 10.95332,-0.79071 0.05315,-0.43516 -1.876107,-4.20901 -5.101229,-9.97894 -2.852696,-5.10361 -5.186714,-9.35476 -5.186714,-9.44697 0,-0.0921 1.516585,-0.1675 3.369629,-0.1675 2.830789,0 3.398508,-0.09 3.552727,-0.56141 0.122312,-0.37389 -2.222054,-4.85874 -7.025744,-13.442137 l -7.208833,-12.880774 1.068532,-0.09241 c 1.96806,-0.170302 2.400546,-0.391302 2.380227,-1.215241 -0.01565,-0.634793 -4.056314,-7.125828 -7.802015,-12.837399 l -3.110871,-1.256824 c 0.812375,1.24821 1.691694,2.608467 2.660354,4.127421 l 5.640694,8.845712 -1.713117,0.173853 c -1.221066,0.123624 -1.737549,0.325925 -1.798599,0.704076 -0.0471,0.291784 3.159639,6.301766 7.12624,13.355494 l 7.212305,12.824689 -3.34133,0.0976 c -3.023946,0.0883 -3.359604,0.16262 -3.526732,0.7803 -0.136317,0.50383 1.17606,3.13649 5.010549,10.05287 2.857242,5.15369 5.194796,9.44664 5.194796,9.53997 0,0.0933 -4.5828,0.1698 -10.184553,0.1698 -7.823259,0 -10.240482,0.10014 -10.424251,0.4332 -0.131586,0.23849 -0.306237,3.08743 -0.38756,6.3309 l -0.147862,5.89713 -5.027299,-0.0941 -5.027298,-0.0935 0.09357,-5.89252 c 0.07348,-4.6336 0.01028,-5.92684 -0.295723,-6.05598 -0.214031,-0.0903 -4.862679,-0.28448 -10.330105,-0.43145 l -9.940235,-0.26742 5.578314,-9.52612 c 3.06837,-5.23958 5.578891,-9.69686 5.578891,-9.90441 0,-0.96464 -0.791043,-1.20946 -3.903319,-1.20946 -1.756597,0 -3.194044,-0.0798 -3.194044,-0.17732 0,-0.0974 3.201638,-5.807065 7.114692,-12.688383 3.913054,-6.881304 7.072747,-12.77239 7.02112,-13.091537 -0.07174,-0.443508 -0.521798,-0.621185 -1.909496,-0.753749 l -1.815925,-0.173853 5.699028,-8.792573 c 1.557798,-2.40365 2.991814,-4.591427 4.055223,-6.19229 z"
       style="fill:none;stroke:#000000;stroke-width:0.320289;stroke-opacity:1"
       id="path2587" />
    <path
       style="fill:none;stroke:#000000;stroke-width:0.567789;stroke-miterlimit:4;stroke-dasharray:none;stroke-opacity:1"
       d="m 54.941578,156.80173 c -7.270627,-0.26952 -9.347717,-0.53717 -9.72393,-1.25305 -0.264223,-0.50271 -0.337722,-5.34729 -0.164162,-10.82108 l 0.314228,-9.91085 -7.703029,-0.001 c -4.236668,-8.6e-4 -12.933034,-0.187 -19.325255,-0.41348 C 7.8525421,134.03079 6.6877509,133.88169 6.4155923,132.87578 6.2084219,132.11012 9.3124926,126.29712 16.327987,114.31289 L 26.54201,96.864461 20.230237,96.550811 c -5.802814,-0.28838 -6.323465,-0.414829 -6.456731,-1.56828 -0.09005,-0.779331 4.722358,-9.809835 12.703296,-23.837819 L 39.325054,48.561532 36.425793,48.374935 C 34.685605,48.263025 33.263691,47.816841 32.869062,47.259053 32.049109,46.100113 32.542111,45.253358 46.720204,23.469081 54.05455,12.20003 57.650517,7.1589857 58.354809,7.1589857 c 1.296068,0 25.265798,36.9606853 25.317013,39.0381473 0.03674,1.489969 -0.745421,1.889211 -4.304372,2.197174 l -1.932391,0.167152 13.03626,23.293631 c 8.686777,15.521831 12.925501,23.632154 12.704321,24.308283 -0.27888,0.852514 -1.30553,1.014678 -6.424595,1.014678 -3.350962,0 -6.092667,0.136431 -6.092667,0.302992 0,0.166749 4.220732,7.854147 9.379412,17.083297 5.83216,10.43408 9.32095,17.25895 9.22483,18.04586 -0.15141,1.23947 -0.55919,1.26891 -19.807482,1.43008 l -19.652907,0.16451 v 11.21675 c 0,12.44666 0.10826,12.09548 -3.653455,11.8506 -1.078911,-0.0701 -6.122151,-0.282 -11.207188,-0.47052 z"
       id="path2587-6"
       sodipodi:nodetypes="cssccssccsssccssssccssssssscsscc" />
    <g
       style="font-style:normal;font-weight:normal;font-size:10.7118px;line-height:1.25;font-family:sans-serif;fill:none;fill-opacity:1;stroke:#000000;stroke-width:0.267795;stroke-opacity:1"
       id="text2649"
       aria-label="2020">
      <g
         id="g2670">
        <path
           d="m 46.444691,101.0032 h 3.436354 v 1.48019 h -5.674953 v -1.48019 l 2.850553,-2.515813 q 0.381817,-0.345204 0.56488,-0.674717 0.183063,-0.329514 0.183063,-0.685179 0,-0.549189 -0.371357,-0.883933 -0.366126,-0.334743 -0.978079,-0.334743 -0.470734,0 -1.030383,0.203984 -0.55965,0.198754 -1.197755,0.596262 V 94.9935 q 0.679948,-0.224906 1.344205,-0.339974 0.664257,-0.120299 1.302363,-0.120299 1.401739,0 2.175834,0.617184 0.779325,0.617184 0.779325,1.720792 0,0.638105 -0.329513,1.192524 -0.329514,0.549189 -1.386049,1.474965 z"
           style="font-style:normal;font-variant:normal;font-weight:bold;font-stretch:normal;font-family:sans-serif;-inkscape-font-specification:'sans-serif Bold';fill:none;stroke:#000000;stroke-width:0.267795;stroke-opacity:1"
           id="path2657" />
        <path
           d="m 55.73383,98.571073 q 0,-1.464503 -0.27721,-2.060766 -0.271979,-0.601492 -0.920545,-0.601492 -0.648566,0 -0.925776,0.601492 -0.277209,0.596263 -0.277209,2.060766 0,1.480197 0.277209,2.086917 0.27721,0.60672 0.925776,0.60672 0.643335,0 0.920545,-0.60672 0.27721,-0.60672 0.27721,-2.086917 z m 2.013693,0.01569 q 0,1.940466 -0.83686,2.997006 -0.836859,1.0513 -2.374588,1.0513 -1.54296,0 -2.379819,-1.0513 -0.836859,-1.05654 -0.836859,-2.997006 0,-1.945697 0.836859,-2.997002 0.836859,-1.056535 2.379819,-1.056535 1.537729,0 2.374588,1.056535 0.83686,1.051305 0.83686,2.997002 z"
           style="font-style:normal;font-variant:normal;font-weight:bold;font-stretch:normal;font-family:sans-serif;-inkscape-font-specification:'sans-serif Bold';fill:none;stroke:#000000;stroke-width:0.267795;stroke-opacity:1"
           id="path2659" />
        <path
           d="m 61.340787,101.0032 h 3.436354 v 1.48019 h -5.674952 v -1.48019 l 2.850552,-2.515813 q 0.381817,-0.345204 0.56488,-0.674717 0.183063,-0.329514 0.183063,-0.685179 0,-0.549189 -0.371357,-0.883933 -0.366126,-0.334743 -0.978079,-0.334743 -0.470733,0 -1.030383,0.203984 -0.55965,0.198754 -1.197755,0.596262 V 94.9935 q 0.679948,-0.224906 1.344205,-0.339974 0.664258,-0.120299 1.302363,-0.120299 1.401739,0 2.175834,0.617184 0.779325,0.617184 0.779325,1.720792 0,0.638105 -0.329513,1.192524 -0.329513,0.549189 -1.386048,1.474965 z"
           style="font-style:normal;font-variant:normal;font-weight:bold;font-stretch:normal;font-family:sans-serif;-inkscape-font-specification:'sans-serif Bold';fill:none;stroke:#000000;stroke-width:0.267795;stroke-opacity:1"
           id="path2661" />
        <path
           d="m 70.629926,98.571073 q 0,-1.464503 -0.277209,-2.060766 -0.271979,-0.601492 -0.920545,-0.601492 -0.648566,0 -0.925776,0.601492 -0.27721,0.596263 -0.27721,2.060766 0,1.480197 0.27721,2.086917 0.27721,0.60672 0.925776,0.60672 0.643335,0 0.920545,-0.60672 0.277209,-0.60672 0.277209,-2.086917 z m 2.013693,0.01569 q 0,1.940466 -0.836859,2.997006 -0.836859,1.0513 -2.374588,1.0513 -1.54296,0 -2.379819,-1.0513 -0.83686,-1.05654 -0.83686,-2.997006 0,-1.945697 0.83686,-2.997002 0.836859,-1.056535 2.379819,-1.056535 1.537729,0 2.374588,1.056535 0.836859,1.051305 0.836859,2.997002 z"
           style="font-style:normal;font-variant:normal;font-weight:bold;font-stretch:normal;font-family:sans-serif;-inkscape-font-specification:'sans-serif Bold';fill:none;stroke:#000000;stroke-width:0.267795;stroke-opacity:1"
           id="path2663" />
      </g>
    </g>
    <text
       id="text2655"
       y="58.397327"
       x="-39.309525"
       style="font-style:normal;font-weight:normal;font-size:10.5833px;line-height:1.25;font-family:sans-serif;fill:#000000;fill-opacity:1;stroke:none;stroke-width:0.264583"
       xml:space="preserve"><tspan
         style="stroke-width:0.264583"
         y="58.397327"
         x="-39.309525"
         id="tspan2653"
         sodipodi:role="line">2020</tspan></text>
  </g>
</svg>
